# xmcd CD database file
#
# Track frame offsets:
#	150
#	15281
#	30375
#	45566
#	62769
#	78078
#	94551
#	111307
#	124322
#	140491
#	153136
#	172162
#
# Disc length: 2486 seconds
#
# Revision: 0
# Processed by: cddbd v1.5.1PL0 Copyright (c) Steve Scherf et al.
# Submitted via: CDex 1.51
#
DISCID=8d09b40c
DTITLE=Peter Sue and Marc - Country
DYEAR=2000
DGENRE=Country
TTITLE0=Diesel Mama
TTITLE1=California Dream Express
TTITLE2=Soldiers
TTITLE3=Tom Dooley
TTITLE4=O my Darling
TTITLE5=Scott Boy
TTITLE6=Pocket Picking Country Boy
TTITLE7=Platform No. 2
TTITLE8=Transcontinental Railroad
TTITLE9=Let me Ride
TTITLE10=Jeremy
TTITLE11=Bye Bye Friends
EXTD=YEAR: 2000
EXTT0=
EXTT1=
EXTT2=
EXTT3=
EXTT4=
EXTT5=
EXTT6=
EXTT7=
EXTT8=
EXTT9=
EXTT10=
EXTT11=
PLAYORDER=
